<svg width="145" height="152" viewBox="0 0 145 152" fill="none" xmlns="http://www.w3.org/2000/svg">
<g filter="url(#filter0_d_301_2)">
<path d="M67.5714 96.5907L68.3778 95.7108V92.1354C64.8638 88.3602 62.7143 83.2979 62.7143 77.7336C62.7143 72.1693 64.8638 67.107 68.3778 63.3318V59.9651H72.3937C73.8851 59.001 75.5055 58.2195 77.2234 57.6523L74.8329 49.7336H55.8571V110.587L67.5714 96.5907Z" fill="#368D30" fill-opacity="0.881694" shape-rendering="crispEdges"/>
<path d="M67.5714 96.5907L68.3778 95.7108V92.1354C64.8638 88.3602 62.7143 83.2979 62.7143 77.7336C62.7143 72.1693 64.8638 67.107 68.3778 63.3318V59.9651H72.3937C73.8851 59.001 75.5055 58.2195 77.2234 57.6523L74.8329 49.7336H55.8571V110.587L67.5714 96.5907Z" fill="url(#paint0_linear_301_2)" shape-rendering="crispEdges"/>
<path d="M55.8571 119.071L74.8329 96.5907C77.9613 98.4193 79.972 98.8764 83.8571 98.8764C87.4216 98.8764 88.6254 99.1292 91.5714 97.5714L95.5714 103.571L111.076 129.465C110.841 130.275 110.714 131.133 110.714 132.019C110.714 136.207 113.53 139.737 117.372 140.82L118.714 143.242V144.019H105.35L84.8503 105.878H68.3778V144.019H55.8571V119.071Z" fill="#368D30" fill-opacity="0.881694" shape-rendering="crispEdges"/>
<path d="M55.8571 119.071L74.8329 96.5907C77.9613 98.4193 79.972 98.8764 83.8571 98.8764C87.4216 98.8764 88.6254 99.1292 91.5714 97.5714L95.5714 103.571L111.076 129.465C110.841 130.275 110.714 131.133 110.714 132.019C110.714 136.207 113.53 139.737 117.372 140.82L118.714 143.242V144.019H105.35L84.8503 105.878H68.3778V144.019H55.8571V119.071Z" fill="url(#paint1_linear_301_2)" shape-rendering="crispEdges"/>
<path d="M96.5275 94.5907L101 101.162C104.922 99.1097 107.329 96.8038 109.762 93.4443C112.962 89.0841 114.562 83.9683 114.562 78.097C114.562 71.2702 114.712 67.7541 111.571 63.3318L103.571 69.5714C104.974 72.3988 105 74.3635 105 77.7336C105 84.5496 101.535 90.7243 96.5275 94.5907Z" fill="#368D30" fill-opacity="0.881694" shape-rendering="crispEdges"/>
<path d="M96.5275 94.5907L101 101.162C104.922 99.1097 107.329 96.8038 109.762 93.4443C112.962 89.0841 114.562 83.9683 114.562 78.097C114.562 71.2702 114.712 67.7541 111.571 63.3318L103.571 69.5714C104.974 72.3988 105 74.3635 105 77.7336C105 84.5496 101.535 90.7243 96.5275 94.5907Z" fill="url(#paint2_linear_301_2)" shape-rendering="crispEdges"/>
<path d="M107.857 58.8764L100.714 64.305C96.5275 59.9651 90.838 56.5907 83.8571 56.5907C83.0987 56.5907 84.5949 56.5129 83.8571 56.5907L81.4119 49.7336C92.0512 49.7336 100.225 52.1512 105.934 56.9863C106.838 57.7464 107.095 58.0076 107.857 58.8764Z" fill="#368D30" fill-opacity="0.881694" shape-rendering="crispEdges"/>
<path d="M107.857 58.8764L100.714 64.305C96.5275 59.9651 90.838 56.5907 83.8571 56.5907C83.0987 56.5907 84.5949 56.5129 83.8571 56.5907L81.4119 49.7336C92.0512 49.7336 100.225 52.1512 105.934 56.9863C106.838 57.7464 107.095 58.0076 107.857 58.8764Z" fill="url(#paint3_linear_301_2)" shape-rendering="crispEdges"/>
<path d="M61.0394 10.0394C64.9271 6.15166 71.2304 6.15166 75.1181 10.0394C79.0059 13.9271 79.0059 20.2304 75.1181 24.1182C74.4495 24.7868 73.7094 25.3404 72.9225 25.7791L83.0914 59.4636C83.3454 59.4531 83.6006 59.4479 83.8571 59.4479C89.9115 59.4479 95.2785 62.3902 98.6065 66.923L123.689 47.7978C121.889 45.4006 121.583 42.0651 123.176 39.305C123.401 38.9156 123.655 38.5533 123.933 38.2191L115.954 32.2347C115.441 32.4515 114.877 32.5715 114.286 32.5715C111.919 32.5715 110 30.6527 110 28.2857C110 25.9188 111.919 24 114.286 24C116.653 24 118.571 25.9188 118.571 28.2857C118.571 28.5764 118.542 28.8604 118.487 29.1348L127.428 35.8403C129.445 35.1717 131.729 35.3351 133.714 36.4814C137.404 38.6116 138.668 43.3296 136.538 47.0193C134.592 50.39 130.486 51.7364 126.978 50.32L100.621 70.4174C101.6 72.6578 102.143 75.1322 102.143 77.7336C102.143 83.925 99.0658 89.3976 94.3575 92.7058L115.63 124.783C116.928 123.939 118.478 123.448 120.143 123.448C124.719 123.448 128.429 127.158 128.429 131.734C128.429 136.31 124.719 140.019 120.143 140.019C115.567 140.019 111.857 136.31 111.857 131.734C111.857 130.316 112.213 128.982 112.841 127.815L90.8397 94.6388C88.6883 95.5284 86.33 96.0193 83.8571 96.0193C80.9808 96.0193 78.2596 95.3552 75.8384 94.1719L49.629 125.358C50.1657 126.27 50.5895 127.27 50.8768 128.342C52.5921 134.744 48.7931 141.324 42.3915 143.039C35.9899 144.754 29.4099 140.955 27.6946 134.554C27.1558 132.543 27.1611 130.515 27.6201 128.625L15.8916 120.988C14.9831 121.627 13.8901 122 12.7143 122C9.55837 122 7 119.314 7 116C7 112.686 9.55837 110 12.7143 110C15.8702 110 18.4286 112.686 18.4286 116C18.4286 116.595 18.3461 117.17 18.1924 117.713L29.2296 124.9C30.0103 123.7 31.0057 122.637 32.1791 121.775L23.9624 94.6238C21.9706 94.6373 19.9746 93.8842 18.4548 92.3645C15.4422 89.3519 15.4422 84.4675 18.4548 81.4548C21.4674 78.4422 26.3519 78.4422 29.3645 81.4548C32.3771 84.4675 32.3771 89.3519 29.3645 92.3645C28.8911 92.8379 28.3714 93.2369 27.8201 93.5615L35.8098 119.962C35.9322 119.925 36.0555 119.89 36.1799 119.857C40.1109 118.803 44.1092 119.829 47.007 122.261L72.4303 92.0101C68.2489 88.659 65.5714 83.5089 65.5714 77.7336C65.5714 69.2812 71.3063 62.1682 79.0972 60.0735L69.1071 26.981C66.2285 27.2782 63.2451 26.3239 61.0394 24.1182C57.1516 20.2304 57.1516 13.9271 61.0394 10.0394Z" fill="url(#paint4_linear_301_2)" shape-rendering="crispEdges"/>
</g>
<defs>
<filter id="filter0_d_301_2" x="0" y="0.123596" width="144.573" height="150.896" filterUnits="userSpaceOnUse" color-interpolation-filters="sRGB">
<feFlood flood-opacity="0" result="BackgroundImageFix"/>
<feColorMatrix in="SourceAlpha" type="matrix" values="0 0 0 0 0 0 0 0 0 0 0 0 0 0 0 0 0 0 127 0" result="hardAlpha"/>
<feOffset/>
<feGaussianBlur stdDeviation="3.5"/>
<feComposite in2="hardAlpha" operator="out"/>
<feColorMatrix type="matrix" values="0 0 0 0 0.130286 0 0 0 0 0.497247 0 0 0 0 0.200406 0 0 0 0.51 0"/>
<feBlend mode="normal" in2="BackgroundImageFix" result="effect1_dropShadow_301_2"/>
<feBlend mode="normal" in="SourceGraphic" in2="effect1_dropShadow_301_2" result="shape"/>
</filter>
<linearGradient id="paint0_linear_301_2" x1="137.573" y1="70.358" x2="64.4714" y2="251.96" gradientUnits="userSpaceOnUse">
<stop stop-color="#137535"/>
<stop offset="0.229167" stop-color="#6DB329" stop-opacity="0.98"/>
<stop offset="0.65625" stop-color="#6DB329" stop-opacity="0.79"/>
<stop offset="0.723958" stop-color="#5165B1" stop-opacity="0.51"/>
<stop offset="0.759309" stop-color="#6898DF" stop-opacity="0.9"/>
<stop offset="0.786458" stop-color="#3B9130" stop-opacity="0.995504"/>
</linearGradient>
<linearGradient id="paint1_linear_301_2" x1="137.573" y1="70.358" x2="64.4714" y2="251.96" gradientUnits="userSpaceOnUse">
<stop stop-color="#137535"/>
<stop offset="0.229167" stop-color="#6DB329" stop-opacity="0.98"/>
<stop offset="0.65625" stop-color="#6DB329" stop-opacity="0.79"/>
<stop offset="0.723958" stop-color="#5165B1" stop-opacity="0.51"/>
<stop offset="0.759309" stop-color="#6898DF" stop-opacity="0.9"/>
<stop offset="0.786458" stop-color="#3B9130" stop-opacity="0.995504"/>
</linearGradient>
<linearGradient id="paint2_linear_301_2" x1="137.573" y1="70.358" x2="64.4714" y2="251.96" gradientUnits="userSpaceOnUse">
<stop stop-color="#137535"/>
<stop offset="0.229167" stop-color="#6DB329" stop-opacity="0.98"/>
<stop offset="0.65625" stop-color="#6DB329" stop-opacity="0.79"/>
<stop offset="0.723958" stop-color="#5165B1" stop-opacity="0.51"/>
<stop offset="0.759309" stop-color="#6898DF" stop-opacity="0.9"/>
<stop offset="0.786458" stop-color="#3B9130" stop-opacity="0.995504"/>
</linearGradient>
<linearGradient id="paint3_linear_301_2" x1="137.573" y1="70.358" x2="64.4714" y2="251.96" gradientUnits="userSpaceOnUse">
<stop stop-color="#137535"/>
<stop offset="0.229167" stop-color="#6DB329" stop-opacity="0.98"/>
<stop offset="0.65625" stop-color="#6DB329" stop-opacity="0.79"/>
<stop offset="0.723958" stop-color="#5165B1" stop-opacity="0.51"/>
<stop offset="0.759309" stop-color="#6898DF" stop-opacity="0.9"/>
<stop offset="0.786458" stop-color="#3B9130" stop-opacity="0.995504"/>
</linearGradient>
<linearGradient id="paint4_linear_301_2" x1="73.2864" y1="7.00003" x2="73.2864" y2="143.451" gradientUnits="userSpaceOnUse">
<stop stop-color="#137535" stop-opacity="0.98"/>
<stop offset="0.0260417" stop-color="#2A8532"/>
<stop offset="0.0519833" stop-color="#238033" stop-opacity="0.998247"/>
<stop offset="0.145833" stop-color="#63AC2A" stop-opacity="0.991106"/>
<stop offset="0.28125" stop-color="#217F33" stop-opacity="0.83"/>
<stop offset="0.424156" stop-color="#48992E" stop-opacity="0.994146"/>
<stop offset="0.476503" stop-color="#57A42C" stop-opacity="0.992403"/>
<stop offset="0.503724" stop-color="#5EA82B" stop-opacity="0.991719"/>
<stop offset="0.623076" stop-color="#368D30" stop-opacity="0.881694"/>
<stop offset="0.855499" stop-color="#3B9130" stop-opacity="0.995504"/>
<stop offset="0.941349" stop-color="#5EA82B" stop-opacity="0.99172"/>
<stop offset="0.984375" stop-color="#6DB329" stop-opacity="0.99"/>
</linearGradient>
</defs>
</svg>
