<?xml version="1.0" encoding="UTF-8" standalone="no"?>
<!-- Created with Inkscape (http://www.inkscape.org/) -->

<svg
   width="1280"
   height="720"
   viewBox="0 0 338.66667 190.5"
   version="1.1"
   id="svg5"
   inkscape:version="1.1.2 (0a00cf5339, 2022-02-04)"
   sodipodi:docname="ship-drive.svg"
   xmlns:inkscape="http://www.inkscape.org/namespaces/inkscape"
   xmlns:sodipodi="http://sodipodi.sourceforge.net/DTD/sodipodi-0.dtd"
   xmlns="http://www.w3.org/2000/svg"
   xmlns:svg="http://www.w3.org/2000/svg">
  <sodipodi:namedview
     id="namedview7"
     pagecolor="#ffffff"
     bordercolor="#666666"
     borderopacity="1.0"
     inkscape:pageshadow="2"
     inkscape:pageopacity="0.0"
     inkscape:pagecheckerboard="true"
     inkscape:document-units="px"
     showgrid="false"
     inkscape:zoom="1.981257"
     inkscape:cx="514.82468"
     inkscape:cy="449.7145"
     inkscape:window-width="1366"
     inkscape:window-height="724"
     inkscape:window-x="0"
     inkscape:window-y="0"
     inkscape:window-maximized="1"
     inkscape:current-layer="g6736"
     showborder="true"
     units="px" />
  <defs
     id="defs2">
    <clipPath
       clipPathUnits="userSpaceOnUse"
       id="clipPath25">
      <path
         d="m 11820,15065 v 2163 h 2158 v -2163 z"
         id="path23" />
    </clipPath>
    <clipPath
       clipPathUnits="userSpaceOnUse"
       id="clipPath37">
      <path
         d="m 13970,15065 v 2163 h 2158 v -2163 z"
         id="path35" />
    </clipPath>
    <clipPath
       clipPathUnits="userSpaceOnUse"
       id="clipPath49">
      <path
         d="m 16120,13987 v 3241 h 1444 v -3241 z"
         id="path47" />
    </clipPath>
    <clipPath
       clipPathUnits="userSpaceOnUse"
       id="clipPath61">
      <path
         d="m 11102.4,10390.2 h 724.797 v 6482.4 H 11102.4 Z"
         id="path59" />
    </clipPath>
    <clipPath
       clipPathUnits="userSpaceOnUse"
       id="clipPath73">
      <path
         d="m 17556,10390.2 h 724.801 v 6482.4 H 17556 Z"
         id="path71" />
    </clipPath>
    <clipPath
       clipPathUnits="userSpaceOnUse"
       id="clipPath85">
      <path
         d="m 10384.8,10030.2 h 724.801 v 6482.4 H 10384.8 Z"
         id="path83" />
    </clipPath>
    <clipPath
       clipPathUnits="userSpaceOnUse"
       id="clipPath97">
      <path
         d="m 18273.6,10030.2 h 722.398 v 6482.4 H 18273.6 Z"
         id="path95" />
    </clipPath>
    <clipPath
       clipPathUnits="userSpaceOnUse"
       id="clipPath109">
      <path
         d="m 9667.2,9672.6 h 724.801 v 6480 H 9667.2 Z"
         id="path107" />
    </clipPath>
    <clipPath
       clipPathUnits="userSpaceOnUse"
       id="clipPath121">
      <path
         d="m 18988.8,9672.6 h 724.801 v 6480 H 18988.8 Z"
         id="path119" />
    </clipPath>
    <clipPath
       clipPathUnits="userSpaceOnUse"
       id="clipPath133">
      <path
         d="m 8952,9312.6 h 722.402 v 6480 H 8952 Z"
         id="path131" />
    </clipPath>
    <clipPath
       clipPathUnits="userSpaceOnUse"
       id="clipPath145">
      <path
         d="m 19706.4,9312.6 h 724.797 v 6480 H 19706.4 Z"
         id="path143" />
    </clipPath>
    <clipPath
       clipPathUnits="userSpaceOnUse"
       id="clipPath157">
      <path
         d="m 8592,2119.8 h 367.199 V 15432.6 H 8592 Z"
         id="path155" />
    </clipPath>
    <clipPath
       clipPathUnits="userSpaceOnUse"
       id="clipPath169">
      <path
         d="m 20424,2119.8 h 364.801 V 15432.6 H 20424 Z"
         id="path167" />
    </clipPath>
    <clipPath
       clipPathUnits="userSpaceOnUse"
       id="clipPath181">
      <path
         d="m 8234.4,1759.8 h 364.797 V 15072.6 H 8234.4 Z"
         id="path179" />
    </clipPath>
    <clipPath
       clipPathUnits="userSpaceOnUse"
       id="clipPath193">
      <path
         d="m 11820,12907.8 h 2157.6 v 2164.8 H 11820 Z"
         id="path191" />
    </clipPath>
    <clipPath
       clipPathUnits="userSpaceOnUse"
       id="clipPath205">
      <path
         d="M 13970.4,12907.8 H 16128 v 2164.8 h -2157.6 z"
         id="path203" />
    </clipPath>
    <clipPath
       clipPathUnits="userSpaceOnUse"
       id="clipPath217">
      <path
         d="m 20781.6,1759.8 h 367.199 V 15072.6 H 20781.6 Z"
         id="path215" />
    </clipPath>
    <clipPath
       clipPathUnits="userSpaceOnUse"
       id="clipPath229">
      <path
         d="m 7874.4,1399.8 h 367.203 V 14715 H 7874.4 Z"
         id="path227" />
    </clipPath>
    <clipPath
       clipPathUnits="userSpaceOnUse"
       id="clipPath241">
      <path
         d="m 21141.6,1399.8 h 364.797 V 14715 H 21141.6 Z"
         id="path239" />
    </clipPath>
    <clipPath
       clipPathUnits="userSpaceOnUse"
       id="clipPath253">
      <path
         d="m 7516.8,1039.8 h 364.801 V 14355 H 7516.8 Z"
         id="path251" />
    </clipPath>
    <clipPath
       clipPathUnits="userSpaceOnUse"
       id="clipPath265">
      <path
         d="m 21499.2,1039.8 h 367.199 V 14355 H 21499.2 Z"
         id="path263" />
    </clipPath>
    <clipPath
       clipPathUnits="userSpaceOnUse"
       id="clipPath277">
      <path
         d="m 7159.2,1039.8 h 364.801 V 13995 H 7159.2 Z"
         id="path275" />
    </clipPath>
    <clipPath
       clipPathUnits="userSpaceOnUse"
       id="clipPath289">
      <path
         d="m 16120.8,10750.2 h 1442.4 V 13995 h -1442.4 z"
         id="path287" />
    </clipPath>
    <clipPath
       clipPathUnits="userSpaceOnUse"
       id="clipPath301">
      <path
         d="m 21859.2,1039.8 h 364.801 V 13995 H 21859.2 Z"
         id="path299" />
    </clipPath>
    <clipPath
       clipPathUnits="userSpaceOnUse"
       id="clipPath313">
      <path
         d="m 6799.2,1039.8 h 367.203 V 13275 H 6799.2 Z"
         id="path311" />
    </clipPath>
    <clipPath
       clipPathUnits="userSpaceOnUse"
       id="clipPath325">
      <path
         d="m 22216.8,1039.8 h 364.801 V 13275 H 22216.8 Z"
         id="path323" />
    </clipPath>
    <clipPath
       clipPathUnits="userSpaceOnUse"
       id="clipPath337">
      <path
         d="m 6441.6,1039.8 h 364.801 V 12915 H 6441.6 Z"
         id="path335" />
    </clipPath>
    <clipPath
       clipPathUnits="userSpaceOnUse"
       id="clipPath349">
      <path
         d="m 11820,10750.2 h 2157.6 V 12915 H 11820 Z"
         id="path347" />
    </clipPath>
    <clipPath
       clipPathUnits="userSpaceOnUse"
       id="clipPath361">
      <path
         d="M 13970.4,10750.2 H 16128 V 12915 h -2157.6 z"
         id="path359" />
    </clipPath>
    <clipPath
       clipPathUnits="userSpaceOnUse"
       id="clipPath373">
      <path
         d="m 22574.4,1039.8 h 367.203 V 12915 H 22574.4 Z"
         id="path371" />
    </clipPath>
    <clipPath
       clipPathUnits="userSpaceOnUse"
       id="clipPath385">
      <path
         d="m 6081.6,1399.8 h 367.199 V 12197.4 H 6081.6 Z"
         id="path383" />
    </clipPath>
    <clipPath
       clipPathUnits="userSpaceOnUse"
       id="clipPath397">
      <path
         d="m 22934.4,1399.8 h 364.801 V 12197.4 H 22934.4 Z"
         id="path395" />
    </clipPath>
    <clipPath
       clipPathUnits="userSpaceOnUse"
       id="clipPath409">
      <path
         d="m 5724,1399.8 h 364.801 V 11477.4 H 5724 Z"
         id="path407" />
    </clipPath>
    <clipPath
       clipPathUnits="userSpaceOnUse"
       id="clipPath421">
      <path
         d="m 23292,1399.8 h 364.801 V 11477.4 H 23292 Z"
         id="path419" />
    </clipPath>
    <clipPath
       clipPathUnits="userSpaceOnUse"
       id="clipPath433">
      <path
         d="m 11820,8592.6 h 2157.6 v 2164.8 H 11820 Z"
         id="path431" />
    </clipPath>
    <clipPath
       clipPathUnits="userSpaceOnUse"
       id="clipPath445">
      <path
         d="M 13970.4,8592.6 H 16128 v 2164.8 h -2157.6 z"
         id="path443" />
    </clipPath>
    <clipPath
       clipPathUnits="userSpaceOnUse"
       id="clipPath457">
      <path
         d="m 16120.8,7512.6 h 1442.4 v 3244.8 h -1442.4 z"
         id="path455" />
    </clipPath>
    <clipPath
       clipPathUnits="userSpaceOnUse"
       id="clipPath469">
      <path
         d="m 11102.4,3917.4 h 724.797 v 6480 H 11102.4 Z"
         id="path467" />
    </clipPath>
    <clipPath
       clipPathUnits="userSpaceOnUse"
       id="clipPath481">
      <path
         d="m 17556,3917.4 h 724.801 v 6480 H 17556 Z"
         id="path479" />
    </clipPath>
    <clipPath
       clipPathUnits="userSpaceOnUse"
       id="clipPath493">
      <path
         d="m 5366.4,1399.8 h 364.797 v 8637.6 H 5366.4 Z"
         id="path491" />
    </clipPath>
    <clipPath
       clipPathUnits="userSpaceOnUse"
       id="clipPath505">
      <path
         d="m 10384.8,3557.4 h 724.801 v 6480 H 10384.8 Z"
         id="path503" />
    </clipPath>
    <clipPath
       clipPathUnits="userSpaceOnUse"
       id="clipPath517">
      <path
         d="m 18273.6,3557.4 h 722.398 v 6480 H 18273.6 Z"
         id="path515" />
    </clipPath>
    <clipPath
       clipPathUnits="userSpaceOnUse"
       id="clipPath529">
      <path
         d="m 23649.6,1759.8 h 367.199 v 8277.6 H 23649.6 Z"
         id="path527" />
    </clipPath>
    <clipPath
       clipPathUnits="userSpaceOnUse"
       id="clipPath541">
      <path
         d="m 4648.8,3197.4 h 724.801 V 9679.8 H 4648.8 Z"
         id="path539" />
    </clipPath>
    <clipPath
       clipPathUnits="userSpaceOnUse"
       id="clipPath553">
      <path
         d="m 9667.2,3197.4 h 724.801 V 9679.8 H 9667.2 Z"
         id="path551" />
    </clipPath>
    <clipPath
       clipPathUnits="userSpaceOnUse"
       id="clipPath565">
      <path
         d="m 18988.8,3197.4 h 724.801 V 9679.8 H 18988.8 Z"
         id="path563" />
    </clipPath>
    <clipPath
       clipPathUnits="userSpaceOnUse"
       id="clipPath577">
      <path
         d="M 3213.6,6075 H 4656 V 9319.8 H 3213.6 Z"
         id="path575" />
    </clipPath>
    <clipPath
       clipPathUnits="userSpaceOnUse"
       id="clipPath589">
      <path
         d="m 8952,2837.4 h 722.402 V 9319.8 H 8952 Z"
         id="path587" />
    </clipPath>
    <clipPath
       clipPathUnits="userSpaceOnUse"
       id="clipPath601">
      <path
         d="m 19706.4,2837.4 h 724.797 V 9319.8 H 19706.4 Z"
         id="path599" />
    </clipPath>
    <clipPath
       clipPathUnits="userSpaceOnUse"
       id="clipPath613">
      <path
         d="m 24009.6,6075 h 1440 v 3244.8 h -1440 z"
         id="path611" />
    </clipPath>
    <clipPath
       clipPathUnits="userSpaceOnUse"
       id="clipPath625">
      <path
         d="M 2138.4,4637.4 H 3220.8 V 8959.8 H 2138.4 Z"
         id="path623" />
    </clipPath>
    <clipPath
       clipPathUnits="userSpaceOnUse"
       id="clipPath637">
      <path
         d="m 25442.4,4637.4 h 1084.8 v 4322.4 h -1084.8 z"
         id="path635" />
    </clipPath>
    <clipPath
       clipPathUnits="userSpaceOnUse"
       id="clipPath649">
      <path
         d="m 1420.8,3917.4 h 724.801 V 8599.8 H 1420.8 Z"
         id="path647" />
    </clipPath>
    <clipPath
       clipPathUnits="userSpaceOnUse"
       id="clipPath661">
      <path
         d="m 11820,6435 h 2157.6 V 8599.8 H 11820 Z"
         id="path659" />
    </clipPath>
    <clipPath
       clipPathUnits="userSpaceOnUse"
       id="clipPath673">
      <path
         d="M 13970.4,6435 H 16128 v 2164.8 h -2157.6 z"
         id="path671" />
    </clipPath>
    <clipPath
       clipPathUnits="userSpaceOnUse"
       id="clipPath685">
      <path
         d="m 26520,4277.4 h 1082.4 V 8599.8 H 26520 Z"
         id="path683" />
    </clipPath>
    <clipPath
       clipPathUnits="userSpaceOnUse"
       id="clipPath697">
      <path
         d="M 705.602,4277.4 H 1428 V 8239.8 H 705.602 Z"
         id="path695" />
    </clipPath>
    <clipPath
       clipPathUnits="userSpaceOnUse"
       id="clipPath709">
      <path
         d="m 27595.2,4277.4 h 722.402 V 8239.8 H 27595.2 Z"
         id="path707" />
    </clipPath>
    <clipPath
       clipPathUnits="userSpaceOnUse"
       id="clipPath721">
      <path
         d="M 345.602,4637.4 H 712.801 V 7879.8 H 345.602 Z"
         id="path719" />
    </clipPath>
    <clipPath
       clipPathUnits="userSpaceOnUse"
       id="clipPath733">
      <path
         d="m 28310.4,4637.4 h 367.199 V 7879.8 H 28310.4 Z"
         id="path731" />
    </clipPath>
    <clipPath
       clipPathUnits="userSpaceOnUse"
       id="clipPath745">
      <path
         d="M 0,5355 V 7520 H 353 V 5355 Z"
         id="path743" />
    </clipPath>
    <clipPath
       clipPathUnits="userSpaceOnUse"
       id="clipPath757">
      <path
         d="m 16120.8,4277.4 h 1442.4 v 3242.4 h -1442.4 z"
         id="path755" />
    </clipPath>
    <clipPath
       clipPathUnits="userSpaceOnUse"
       id="clipPath769">
      <path
         d="m 28670,4995 v 2525 h 353 V 4995 Z"
         id="path767" />
    </clipPath>
    <clipPath
       clipPathUnits="userSpaceOnUse"
       id="clipPath781">
      <path
         d="m 11820,4277.4 h 2157.6 V 6442.2 H 11820 Z"
         id="path779" />
    </clipPath>
    <clipPath
       clipPathUnits="userSpaceOnUse"
       id="clipPath793">
      <path
         d="M 13970.4,4277.4 H 16128 v 2164.8 h -2157.6 z"
         id="path791" />
    </clipPath>
    <clipPath
       clipPathUnits="userSpaceOnUse"
       id="clipPath805">
      <path
         d="M 3213.6,2837.4 H 4656 V 6082.2 H 3213.6 Z"
         id="path803" />
    </clipPath>
    <clipPath
       clipPathUnits="userSpaceOnUse"
       id="clipPath817">
      <path
         d="m 24009.6,2837.4 h 1440 v 3244.8 h -1440 z"
         id="path815" />
    </clipPath>
    <clipPath
       clipPathUnits="userSpaceOnUse"
       id="clipPath829">
      <path
         d="M 2138.4,3197.4 H 3220.8 V 4644.6 H 2138.4 Z"
         id="path827" />
    </clipPath>
    <clipPath
       clipPathUnits="userSpaceOnUse"
       id="clipPath841">
      <path
         d="m 25442.4,2837.4 h 1084.8 v 1807.2 h -1084.8 z"
         id="path839" />
    </clipPath>
    <clipPath
       clipPathUnits="userSpaceOnUse"
       id="clipPath853">
      <path
         d="m 1063.2,3917.4 h 364.801 v 367.199 H 1063.2 Z"
         id="path851" />
    </clipPath>
    <clipPath
       clipPathUnits="userSpaceOnUse"
       id="clipPath865">
      <path
         d="m 11820,2119.8 h 2157.6 V 4284.6 H 11820 Z"
         id="path863" />
    </clipPath>
    <clipPath
       clipPathUnits="userSpaceOnUse"
       id="clipPath877">
      <path
         d="M 13970.4,2119.8 H 16128 v 2164.8 h -2157.6 z"
         id="path875" />
    </clipPath>
    <clipPath
       clipPathUnits="userSpaceOnUse"
       id="clipPath889">
      <path
         d="m 16120.8,1039.8 h 1442.4 v 3244.8 h -1442.4 z"
         id="path887" />
    </clipPath>
    <clipPath
       clipPathUnits="userSpaceOnUse"
       id="clipPath901">
      <path
         d="m 26520,3557.4 h 1082.4 v 727.199 H 26520 Z"
         id="path899" />
    </clipPath>
    <clipPath
       clipPathUnits="userSpaceOnUse"
       id="clipPath913">
      <path
         d="m 27595.2,3917.4 h 364.801 v 367.199 H 27595.2 Z"
         id="path911" />
    </clipPath>
    <clipPath
       clipPathUnits="userSpaceOnUse"
       id="clipPath925">
      <path
         d="m 1780.8,3557.4 h 364.801 v 367.199 H 1780.8 Z"
         id="path923" />
    </clipPath>
    <clipPath
       clipPathUnits="userSpaceOnUse"
       id="clipPath937">
      <path
         d="m 11102,0 v 3925 h 726 V 0 Z"
         id="path935" />
    </clipPath>
    <clipPath
       clipPathUnits="userSpaceOnUse"
       id="clipPath949">
      <path
         d="m 17556,0 v 3925 h 725 V 0 Z"
         id="path947" />
    </clipPath>
    <clipPath
       clipPathUnits="userSpaceOnUse"
       id="clipPath961">
      <path
         d="m 10384,0 v 3565 h 726 V 0 Z"
         id="path959" />
    </clipPath>
    <clipPath
       clipPathUnits="userSpaceOnUse"
       id="clipPath973">
      <path
         d="m 18273.6,319.801 h 722.398 v 3244.8 H 18273.6 Z"
         id="path971" />
    </clipPath>
    <clipPath
       clipPathUnits="userSpaceOnUse"
       id="clipPath985">
      <path
         d="m 26520,3197.4 h 364.801 v 367.199 H 26520 Z"
         id="path983" />
    </clipPath>
    <clipPath
       clipPathUnits="userSpaceOnUse"
       id="clipPath997">
      <path
         d="m 2856,2837.4 h 364.801 v 367.199 H 2856 Z"
         id="path995" />
    </clipPath>
    <clipPath
       clipPathUnits="userSpaceOnUse"
       id="clipPath1009">
      <path
         d="m 4648.8,1759.8 h 724.801 V 3204.6 H 4648.8 Z"
         id="path1007" />
    </clipPath>
    <clipPath
       clipPathUnits="userSpaceOnUse"
       id="clipPath1021">
      <path
         d="m 9667.2,319.801 h 724.801 v 2884.8 H 9667.2 Z"
         id="path1019" />
    </clipPath>
    <clipPath
       clipPathUnits="userSpaceOnUse"
       id="clipPath1033">
      <path
         d="m 18988.8,319.801 h 724.801 v 2884.8 H 18988.8 Z"
         id="path1031" />
    </clipPath>
    <clipPath
       clipPathUnits="userSpaceOnUse"
       id="clipPath1045">
      <path
         d="M 3213.6,2477.4 H 4656 v 367.199 H 3213.6 Z"
         id="path1043" />
    </clipPath>
    <clipPath
       clipPathUnits="userSpaceOnUse"
       id="clipPath1057">
      <path
         d="m 8952,319.801 h 722.402 v 2524.8 H 8952 Z"
         id="path1055" />
    </clipPath>
    <clipPath
       clipPathUnits="userSpaceOnUse"
       id="clipPath1069">
      <path
         d="m 19706.4,319.801 h 724.797 v 2524.8 H 19706.4 Z"
         id="path1067" />
    </clipPath>
    <clipPath
       clipPathUnits="userSpaceOnUse"
       id="clipPath1081">
      <path
         d="M 24009.6,2119.8 H 25092 v 724.801 h -1082.4 z"
         id="path1079" />
    </clipPath>
    <clipPath
       clipPathUnits="userSpaceOnUse"
       id="clipPath1093">
      <path
         d="m 25084.8,2477.4 h 724.801 v 367.199 H 25084.8 Z"
         id="path1091" />
    </clipPath>
    <clipPath
       clipPathUnits="userSpaceOnUse"
       id="clipPath1105">
      <path
         d="m 3931.2,2119.8 h 724.801 v 364.801 H 3931.2 Z"
         id="path1103" />
    </clipPath>
    <clipPath
       clipPathUnits="userSpaceOnUse"
       id="clipPath1117">
      <path
         d="m 8592,679.801 h 367.199 v 1447.2 H 8592 Z"
         id="path1115" />
    </clipPath>
    <clipPath
       clipPathUnits="userSpaceOnUse"
       id="clipPath1129">
      <path
         d="m 11820,0 v 2127 h 2158 V 0 Z"
         id="path1127" />
    </clipPath>
    <clipPath
       clipPathUnits="userSpaceOnUse"
       id="clipPath1141">
      <path
         d="m 13970,0 v 2127 h 2158 V 0 Z"
         id="path1139" />
    </clipPath>
    <clipPath
       clipPathUnits="userSpaceOnUse"
       id="clipPath1153">
      <path
         d="m 20424,679.801 h 364.801 v 1447.2 H 20424 Z"
         id="path1151" />
    </clipPath>
    <clipPath
       clipPathUnits="userSpaceOnUse"
       id="clipPath1165">
      <path
         d="m 24009.6,1759.8 h 364.797 v 367.199 H 24009.6 Z"
         id="path1163" />
    </clipPath>
    <clipPath
       clipPathUnits="userSpaceOnUse"
       id="clipPath1177">
      <path
         d="m 8234.4,679.801 h 364.797 v 1087.2 H 8234.4 Z"
         id="path1175" />
    </clipPath>
    <clipPath
       clipPathUnits="userSpaceOnUse"
       id="clipPath1189">
      <path
         d="m 20781.6,679.801 h 367.199 v 1087.2 H 20781.6 Z"
         id="path1187" />
    </clipPath>
    <clipPath
       clipPathUnits="userSpaceOnUse"
       id="clipPath1201">
      <path
         d="m 7874.4,679.801 h 367.203 V 1407 H 7874.4 Z"
         id="path1199" />
    </clipPath>
    <clipPath
       clipPathUnits="userSpaceOnUse"
       id="clipPath1213">
      <path
         d="m 21141.6,679.801 h 364.797 V 1407 H 21141.6 Z"
         id="path1211" />
    </clipPath>
    <clipPath
       clipPathUnits="userSpaceOnUse"
       id="clipPath1225">
      <path
         d="m 7516.8,679.801 h 364.801 V 1047 H 7516.8 Z"
         id="path1223" />
    </clipPath>
    <clipPath
       clipPathUnits="userSpaceOnUse"
       id="clipPath1237">
      <path
         d="m 16120,0 v 1047 h 1444 V 0 Z"
         id="path1235" />
    </clipPath>
    <clipPath
       clipPathUnits="userSpaceOnUse"
       id="clipPath1249">
      <path
         d="m 21499.2,679.801 h 367.199 V 1047 H 21499.2 Z"
         id="path1247" />
    </clipPath>
    <clipPath
       clipPathUnits="userSpaceOnUse"
       id="clipPath1261">
      <path
         d="m 18273,0 v 328 h 366 V 0 Z"
         id="path1259" />
    </clipPath>
  </defs>
  <g
     inkscape:label="Layer 1"
     inkscape:groupmode="layer"
     id="layer1"
     style="display:inline">
    <g
       id="g6736"
       transform="matrix(0.00625046,0,0,-0.00625046,89.52587,175.47007)">
      <path
         d="m 15706.8,22320 c 0,-61.7 -50,-111.7 -111.7,-111.7 -61.7,0 -111.7,50 -111.7,111.7 0,61.7 50,111.7 111.7,111.7 61.7,0 111.7,-50 111.7,-111.7"
         style="fill:#4a50ab;fill-opacity:1;fill-rule:nonzero;stroke:none"
         id="path6748" />
      <path
         d="m 16781.9,24260.9 c 0,-61.7 -50,-111.7 -111.7,-111.7 -61.7,0 -111.7,50 -111.7,111.7 0,61.7 50,111.7 111.7,111.7 61.7,0 111.7,-50 111.7,-111.7"
         style="fill:#4a50ab;fill-opacity:1;fill-rule:nonzero;stroke:none"
         id="path6750" />
      <path
         d="m 8843.92,18500.7 c 0,-61.7 -50.01,-111.8 -111.71,-111.8 -61.69,0 -111.7,50.1 -111.7,111.8 0,61.7 50.01,111.7 111.7,111.7 61.7,0 111.71,-50 111.71,-111.7"
         style="fill:#4a50ab;fill-opacity:1;fill-rule:nonzero;stroke:none"
         id="path6752" />
      <path
         d="m 21916.8,19621.6 c 0,-90.6 -73.5,-164 -164.1,-164 -90.6,0 -164.1,73.4 -164.1,164 0,90.7 73.5,164.1 164.1,164.1 90.6,0 164.1,-73.4 164.1,-164.1"
         style="fill:#4a50ab;fill-opacity:1;fill-rule:nonzero;stroke:none"
         id="path6754" />
      <path
         d="m 11510.9,25891.1 c 0,-90.6 -73.5,-164.1 -164.1,-164.1 -90.6,0 -164.1,73.5 -164.1,164.1 0,90.6 73.5,164 164.1,164 90.6,0 164.1,-73.4 164.1,-164"
         style="fill:#4a50ab;fill-opacity:1;fill-rule:nonzero;stroke:none"
         id="path6756" />
      <path
         d="m 13738,19216.7 c 0,-90.6 -73.5,-164.1 -164.1,-164.1 -90.6,0 -164,73.5 -164,164.1 0,90.6 73.4,164.1 164,164.1 90.6,0 164.1,-73.5 164.1,-164.1"
         style="fill:#4a50ab;fill-opacity:1;fill-rule:nonzero;stroke:none"
         id="path6758" />
      <path
         d="m 21469.9,16232.1 c 0,-81 -65.6,-146.6 -146.6,-146.6 -80.9,0 -146.6,65.6 -146.6,146.6 0,81 65.7,146.6 146.6,146.6 81,0 146.6,-65.6 146.6,-146.6"
         style="fill:#4a50ab;fill-opacity:1;fill-rule:nonzero;stroke:none"
         id="path6760" />
      <path
         d="m 23913.5,18298.6 c 0,-46.2 -37.5,-83.7 -83.8,-83.7 -46.3,0 -83.8,37.5 -83.8,83.7 0,46.3 37.5,83.8 83.8,83.8 46.3,0 83.8,-37.5 83.8,-83.8"
         style="fill:#4a50ab;fill-opacity:1;fill-rule:nonzero;stroke:none"
         id="path6762" />
      <path
         d="m 4389.68,24854.3 c 0,-27 -21.88,-48.9 -48.87,-48.9 -26.99,0 -48.87,21.9 -48.87,48.9 0,27 21.88,48.9 48.87,48.9 26.99,0 48.87,-21.9 48.87,-48.9"
         style="fill:#4a50ab;fill-opacity:1;fill-rule:nonzero;stroke:none"
         id="path6764" />
      <path
         d="m 2106.71,22546.9 c 0,-156.1 -126.59,-282.7 -282.75,-282.7 -156.16,0 -282.76,126.6 -282.76,282.7 0,156.2 126.6,282.8 282.76,282.8 156.16,0 282.75,-126.6 282.75,-282.8"
         style="fill:#4a50ab;fill-opacity:1;fill-rule:nonzero;stroke:none"
         id="path6766" />
      <path
         d="m 4250.05,21667.2 c 0,-121.4 -98.45,-219.9 -219.92,-219.9 -121.46,0 -219.91,98.5 -219.91,219.9 0,121.5 98.45,220 219.91,220 121.47,0 219.92,-98.5 219.92,-220"
         style="fill:#4a50ab;fill-opacity:1;fill-rule:nonzero;stroke:none"
         id="path6768" />
      <path
         d="m 8850.9,25576.9 c 0,-32.8 -26.57,-59.3 -59.35,-59.3 -32.77,0 -59.34,26.5 -59.34,59.3 0,32.8 26.57,59.4 59.34,59.4 32.78,0 59.35,-26.6 59.35,-59.4"
         style="fill:#4a50ab;fill-opacity:1;fill-rule:nonzero;stroke:none"
         id="path6770" />
      <path
         d="m 2330.12,25775.9 c 0,-61.7 -50.01,-111.7 -111.7,-111.7 -61.69,0 -111.71,50 -111.71,111.7 0,61.7 50.02,111.7 111.71,111.7 61.69,0 111.7,-50 111.7,-111.7"
         style="fill:#4a50ab;fill-opacity:1;fill-rule:nonzero;stroke:none"
         id="path6772" />
      <path
         d="m 22712.7,14197 c 0,-75.2 -61,-136.2 -136.2,-136.2 -75.2,0 -136.1,61 -136.1,136.2 0,75.2 60.9,136.1 136.1,136.1 75.2,0 136.2,-60.9 136.2,-136.1"
         style="fill:#4a50ab;fill-opacity:1;fill-rule:nonzero;stroke:none"
         id="path6774" />
      <path
         d="m 13549.5,22858.8 v 0 c 34.1,-156 155.9,-277.8 311.8,-311.9 -155.9,-34.1 -277.7,-155.9 -311.8,-311.8 -34.1,155.9 -155.9,277.7 -311.9,311.8 156,34.1 277.8,155.9 311.9,311.9"
         style="fill:#f6f353;fill-opacity:1;fill-rule:nonzero;stroke:none"
         id="path6776" />
      <path
         d="m 5199.54,18664.7 c 0,-90.6 -73.46,-164 -164.06,-164 -90.62,0 -164.07,73.4 -164.07,164 0,90.6 73.45,164.1 164.07,164.1 90.6,0 164.06,-73.5 164.06,-164.1"
         style="fill:#4a50ab;fill-opacity:1;fill-rule:nonzero;stroke:none"
         id="path6778" />
      <path
         d="m 2539.57,18350.6 c 0,-32.8 -26.57,-59.4 -59.35,-59.4 -32.77,0 -59.34,26.6 -59.34,59.4 0,32.7 26.57,59.3 59.34,59.3 32.78,0 59.35,-26.6 59.35,-59.3"
         style="fill:#4a50ab;fill-opacity:1;fill-rule:nonzero;stroke:none"
         id="path6780" />
      <path
         d="m 2939.84,17111.3 v 0 c 34.11,-155.9 155.9,-277.7 311.85,-311.8 -155.95,-34.1 -277.74,-155.9 -311.85,-311.9 -34.1,156 -155.89,277.8 -311.84,311.9 155.95,34.1 277.74,155.9 311.84,311.8"
         style="fill:#f6f353;fill-opacity:1;fill-rule:nonzero;stroke:none"
         id="path6782" />
      <path
         d="m 17733.8,26515.9 v 0 c 34.1,-155.9 155.9,-277.7 311.8,-311.8 -155.9,-34.1 -277.7,-155.9 -311.8,-311.9 -34.1,156 -155.9,277.8 -311.9,311.9 156,34.1 277.8,155.9 311.9,311.8"
         style="fill:#4a50ab;fill-opacity:1;fill-rule:nonzero;stroke:none"
         id="path6784" />
      <path
         d="m 11035.6,21244.8 v 0 c 34.1,-155.9 155.9,-277.7 311.9,-311.8 -156,-34.1 -277.8,-155.9 -311.9,-311.8 v 0 0 c -34.1,155.9 -155.9,277.7 -311.8,311.8 155.9,34.1 277.7,155.9 311.8,311.8"
         style="fill:#f6f353;fill-opacity:1;fill-rule:nonzero;stroke:none"
         id="path6786" />
      <path
         d="m 6123.44,26201.8 v 0 c 34.1,-156 155.9,-277.8 311.83,-311.9 -155.93,-34.1 -277.73,-155.9 -311.83,-311.8 -34.1,155.9 -155.9,277.7 -311.85,311.8 155.95,34.1 277.75,155.9 311.85,311.9"
         style="fill:#4a50ab;fill-opacity:1;fill-rule:nonzero;stroke:none"
         id="path6788" />
      <path
         d="m 7310.3,21244.8 v 0 c 34.09,-155.9 155.9,-277.7 311.84,-311.8 -155.94,-34.1 -277.75,-155.9 -311.84,-311.8 v 0 0 c -34.1,155.9 -155.91,277.7 -311.84,311.8 155.93,34.1 277.74,155.9 311.84,311.8"
         style="fill:#4a50ab;fill-opacity:1;fill-rule:nonzero;stroke:none"
         id="path6790" />
      <path
         d="m 27998.8,26383.5 c 0,-61.7 -50,-111.7 -111.7,-111.7 -61.7,0 -111.7,50 -111.7,111.7 0,61.7 50,111.7 111.7,111.7 61.7,0 111.7,-50 111.7,-111.7"
         style="fill:#4a50ab;fill-opacity:1;fill-rule:nonzero;stroke:none"
         id="path6792" />
      <path
         d="m 17213.6,19549.5 c 0,-61.7 -50,-111.7 -111.7,-111.7 -61.7,0 -111.7,50 -111.7,111.7 0,61.7 50,111.7 111.7,111.7 61.7,0 111.7,-50 111.7,-111.7"
         style="fill:#4a50ab;fill-opacity:1;fill-rule:nonzero;stroke:none"
         id="path6794" />
      <path
         d="m 21135.9,22564.1 c 0,-61.7 -50,-111.7 -111.7,-111.7 -61.7,0 -111.7,50 -111.7,111.7 0,61.7 50,111.7 111.7,111.7 61.7,0 111.7,-50 111.7,-111.7"
         style="fill:#4a50ab;fill-opacity:1;fill-rule:nonzero;stroke:none"
         id="path6796" />
      <path
         d="m 25693.7,20621.2 c 0,-90.6 -73.5,-164.1 -164.1,-164.1 -90.6,0 -164,73.5 -164,164.1 0,90.6 73.4,164 164,164 90.6,0 164.1,-73.4 164.1,-164"
         style="fill:#4a50ab;fill-opacity:1;fill-rule:nonzero;stroke:none"
         id="path6798" />
      <path
         d="m 26030,23280.2 c 0,-90.6 -73.5,-164.1 -164.1,-164.1 -90.6,0 -164,73.5 -164,164.1 0,90.6 73.4,164.1 164,164.1 90.6,0 164.1,-73.5 164.1,-164.1"
         style="fill:#4a50ab;fill-opacity:1;fill-rule:nonzero;stroke:none"
         id="path6800" />
      <path
         d="m 23075.2,21447.3 c 0,-32.8 -26.6,-59.4 -59.4,-59.4 -32.8,0 -59.3,26.6 -59.3,59.4 0,32.7 26.5,59.3 59.3,59.3 32.8,0 59.4,-26.6 59.4,-59.3"
         style="fill:#4a50ab;fill-opacity:1;fill-rule:nonzero;stroke:none"
         id="path6802" />
      <path
         d="m 25841.5,26922.2 v 0 c 34.1,-155.9 155.9,-277.7 311.8,-311.8 -155.9,-34.1 -277.7,-155.9 -311.8,-311.8 -34.1,155.9 -155.9,277.7 -311.9,311.8 156,34.1 277.8,155.9 311.9,311.8"
         style="fill:#f6f353;fill-opacity:1;fill-rule:nonzero;stroke:none"
         id="path6804" />
      <path
         d="m 18165.5,21804.5 v 0 c 34.1,-155.9 155.9,-277.7 311.8,-311.8 -155.9,-34.1 -277.7,-155.9 -311.8,-311.8 -34.1,155.9 -155.9,277.7 -311.9,311.8 156,34.1 277.8,155.9 311.9,311.8"
         style="fill:#4a50ab;fill-opacity:1;fill-rule:nonzero;stroke:none"
         id="path6806" />
      <path
         d="m 23327.7,25308.3 v 0 c 34.1,-155.9 155.9,-277.7 311.8,-311.8 -155.9,-34.1 -277.7,-155.9 -311.8,-311.9 -34.1,156 -155.9,277.8 -311.9,311.9 156,34.1 277.8,155.9 311.9,311.8"
         style="fill:#f6f353;fill-opacity:1;fill-rule:nonzero;stroke:none"
         id="path6808" />
      <path
         d="m 19602.3,25308.3 v 0 c 34.1,-155.9 155.9,-277.7 311.9,-311.8 -156,-34.1 -277.8,-155.9 -311.9,-311.9 -34.1,156 -155.9,277.8 -311.8,311.9 155.9,34.1 277.7,155.9 311.8,311.8"
         style="fill:#f6f353;fill-opacity:1;fill-rule:nonzero;stroke:none"
         id="path6810" />
      <path
         d="m 1523.86,10344.7 c 0,-61.7 -50.02,-111.7 -111.71,-111.7 -61.69,0 -111.71,50 -111.71,111.7 0,61.7 50.02,111.7 111.71,111.7 61.69,0 111.71,-50 111.71,-111.7"
         style="fill:#4a50ab;fill-opacity:1;fill-rule:nonzero;stroke:none"
         id="path6812" />
      <path
         d="m 2599.01,12285.6 c 0,-61.7 -50.01,-111.7 -111.71,-111.7 -61.68,0 -111.69,50 -111.69,111.7 0,61.7 50.01,111.7 111.69,111.7 61.7,0 111.71,-50 111.71,-111.7"
         style="fill:#4a50ab;fill-opacity:1;fill-rule:nonzero;stroke:none"
         id="path6814" />
      <path
         d="m 5035.48,5990 c 0,-90.6 -73.46,-164.1 -164.07,-164.1 -90.61,0 -164.07,73.5 -164.07,164.1 0,90.6 73.46,164.1 164.07,164.1 90.61,0 164.07,-73.5 164.07,-164.1"
         style="fill:#4a50ab;fill-opacity:1;fill-rule:nonzero;stroke:none"
         id="path6816" />
      <path
         d="m 3083.07,2085.6 c 0,-90.7 -73.46,-164.1 -164.07,-164.1 -90.61,0 -164.07,73.4 -164.07,164.1 0,90.6 73.46,164 164.07,164 90.61,0 164.07,-73.4 164.07,-164"
         style="fill:#4a50ab;fill-opacity:1;fill-rule:nonzero;stroke:none"
         id="path6818" />
      <path
         d="m 7287.01,4256.8 c 0,-81 -65.64,-146.6 -146.61,-146.6 -80.98,0 -146.61,65.6 -146.61,146.6 0,81 65.63,146.6 146.61,146.6 80.97,0 146.61,-65.6 146.61,-146.6"
         style="fill:#4a50ab;fill-opacity:1;fill-rule:nonzero;stroke:none"
         id="path6820" />
      <path
         d="m 9730.56,6323.4 c 0,-46.3 -37.51,-83.8 -83.78,-83.8 -46.27,0 -83.78,37.5 -83.78,83.8 0,46.2 37.51,83.7 83.78,83.7 46.27,0 83.78,-37.5 83.78,-83.7"
         style="fill:#4a50ab;fill-opacity:1;fill-rule:nonzero;stroke:none"
         id="path6822" />
      <path
         d="m 8529.73,2221.7 c 0,-75.2 -60.95,-136.1 -136.15,-136.1 -75.18,0 -136.13,60.9 -136.13,136.1 0,75.2 60.95,136.1 136.13,136.1 75.2,0 136.15,-60.9 136.15,-136.1"
         style="fill:#4a50ab;fill-opacity:1;fill-rule:nonzero;stroke:none"
         id="path6824" />
      <path
         d="m 6729.58,16543.9 v 0 c 34.1,-155.9 155.9,-277.7 311.85,-311.8 -155.95,-34.1 -277.75,-155.9 -311.85,-311.9 -34.1,156 -155.9,277.8 -311.84,311.9 155.94,34.1 277.74,155.9 311.84,311.8"
         style="fill:#f6f353;fill-opacity:1;fill-rule:nonzero;stroke:none"
         id="path6826" />
      <path
         d="m 3550.83,14540.7 v 0 c 34.1,-156 155.9,-277.8 311.85,-311.9 -155.95,-34.1 -277.75,-155.9 -311.85,-311.8 -34.1,155.9 -155.9,277.7 -311.84,311.8 155.94,34.1 277.74,155.9 311.84,311.9"
         style="fill:#4a50ab;fill-opacity:1;fill-rule:nonzero;stroke:none"
         id="path6828" />
      <path
         d="m 13815.9,14408.2 c 0,-61.7 -50.1,-111.7 -111.7,-111.7 -61.7,0 -111.7,50 -111.7,111.7 0,61.7 50,111.7 111.7,111.7 61.6,0 111.7,-50 111.7,-111.7"
         style="fill:#4a50ab;fill-opacity:1;fill-rule:nonzero;stroke:none"
         id="path6830" />
      <path
         d="m 3030.7,7574.2 c 0,-61.7 -50.01,-111.7 -111.7,-111.7 -61.7,0 -111.71,50 -111.71,111.7 0,61.7 50.01,111.7 111.71,111.7 61.69,0 111.7,-50 111.7,-111.7"
         style="fill:#4a50ab;fill-opacity:1;fill-rule:nonzero;stroke:none"
         id="path6832" />
      <path
         d="m 6952.99,10588.9 c 0,-61.7 -50.01,-111.7 -111.7,-111.7 -61.69,0 -111.71,50 -111.71,111.7 0,61.7 50.02,111.7 111.71,111.7 61.69,0 111.7,-50 111.7,-111.7"
         style="fill:#4a50ab;fill-opacity:1;fill-rule:nonzero;stroke:none"
         id="path6834" />
      <path
         d="m 14164.1,9205.6 c 0,-90.6 -73.5,-164.1 -164.1,-164.1 -90.6,0 -164.1,73.5 -164.1,164.1 0,90.6 73.5,164 164.1,164 90.6,0 164.1,-73.4 164.1,-164"
         style="fill:#4a50ab;fill-opacity:1;fill-rule:nonzero;stroke:none"
         id="path6836" />
      <path
         d="m 11847.1,11304.9 c 0,-90.6 -73.5,-164 -164.1,-164 -90.6,0 -164.1,73.4 -164.1,164 0,90.6 73.5,164.1 164.1,164.1 90.6,0 164.1,-73.5 164.1,-164.1"
         style="fill:#4a50ab;fill-opacity:1;fill-rule:nonzero;stroke:none"
         id="path6838" />
      <path
         d="m 8892.23,9472 c 0,-32.8 -26.58,-59.3 -59.35,-59.3 -32.77,0 -59.34,26.5 -59.34,59.3 0,32.8 26.57,59.3 59.34,59.3 32.77,0 59.35,-26.5 59.35,-59.3"
         style="fill:#4a50ab;fill-opacity:1;fill-rule:nonzero;stroke:none"
         id="path6840" />
      <path
         d="m 11658.5,14947 v 0 c 34.1,-156 155.9,-277.8 311.9,-311.9 -156,-34.1 -277.8,-155.9 -311.9,-311.8 -34.1,155.9 -155.9,277.7 -311.8,311.8 155.9,34.1 277.7,155.9 311.8,311.9"
         style="fill:#4a50ab;fill-opacity:1;fill-rule:nonzero;stroke:none"
         id="path6842" />
      <path
         d="m 3982.53,9829.3 v 0 c 34.09,-156 155.9,-277.8 311.84,-311.9 -155.94,-34.1 -277.75,-155.9 -311.84,-311.8 v 0 0 c -34.1,155.9 -155.91,277.7 -311.85,311.8 155.94,34.1 277.75,155.9 311.85,311.9"
         style="fill:#4a50ab;fill-opacity:1;fill-rule:nonzero;stroke:none"
         id="path6844" />
      <path
         d="m 9144.73,13333.1 v 0 c 34.1,-156 155.9,-277.8 311.84,-311.9 -155.94,-34.1 -277.74,-155.9 -311.84,-311.8 -34.1,155.9 -155.9,277.7 -311.85,311.8 155.95,34.1 277.75,155.9 311.85,311.9"
         style="fill:#4a50ab;fill-opacity:1;fill-rule:nonzero;stroke:none"
         id="path6846" />
      <path
         d="m 5419.38,13333.1 v 0 c 34.1,-156 155.89,-277.8 311.84,-311.9 -155.95,-34.1 -277.74,-155.9 -311.84,-311.8 -34.11,155.9 -155.9,277.7 -311.84,311.8 h -0.01 0.01 c 155.94,34.1 277.73,155.9 311.84,311.9"
         style="fill:#4a50ab;fill-opacity:1;fill-rule:nonzero;stroke:none"
         id="path6848" />
      <path
         d="m 22039.7,8899.4 c 459.1,-795.2 -651.6,-2296 -2480.8,-3352.1 -1829.3,-1056.1 -3684.3,-1267.6 -4143.4,-472.4 -459.1,795.2 651.6,2296 2480.8,3352.1 1829.2,1056.1 3684.3,1267.6 4143.4,472.4"
         style="fill:#8f9192;fill-opacity:1;fill-rule:nonzero;stroke:none"
         id="path6852" />
      <path
         d="m 19558.8,5547.3 c 1589.5,917.7 2636.5,2171.1 2582.4,3005.6 -695.5,464.5 -2304.6,184.8 -3894.4,-733.1 -1589.5,-917.7 -2636.4,-2171.1 -2582.3,-3005.6 695.5,-464.5 2304.6,-184.7 3894.3,733.1"
         style="fill:#878a8a;fill-opacity:1;fill-rule:nonzero;stroke:none"
         id="path6854" />
      <path
         d="m 22070.8,1885.2 c 329,-569.8 -466.9,-1645.098 -1777.5,-2401.798 -1310.7,-756.802 -2639.9,-908.302 -2968.8,-338.5 -329,569.7 466.8,1645 1777.5,2401.798 1310.7,756.7 2639.9,908.2 2968.8,338.5"
         style="fill:#8f9192;fill-opacity:1;fill-rule:nonzero;stroke:none"
         id="path6856" />
      <path
         d="m 20293.3,-516.598 c 1138.8,657.5 1889,1555.598 1850.2,2153.498 -498.3,332.8 -1651.2,132.4 -2790.3,-525.3 -1138.9,-657.498 -1889,-1555.6 -1850.3,-2153.5 498.3,-332.8 1651.3,-132.4 2790.4,525.302"
         style="fill:#878a8a;fill-opacity:1;fill-rule:nonzero;stroke:none"
         id="path6858" />
      <path
         d="m 30960.8,9366.6 c 328.9,-569.8 -466.9,-1645.1 -1777.6,-2401.8 -1310.7,-756.7 -2639.8,-908.3 -2968.8,-338.5 -329,569.7 466.9,1645.1 1777.6,2401.8 1310.6,756.7 2639.8,908.2 2968.8,338.5"
         style="fill:#8f9192;fill-opacity:1;fill-rule:nonzero;stroke:none"
         id="path6860" />
      <path
         d="m 29183.2,6964.8 c 1138.9,657.5 1889,1555.6 1850.3,2153.5 -498.3,332.9 -1651.3,132.4 -2790.4,-525.3 -1138.9,-657.5 -1889,-1555.6 -1850.2,-2153.5 498.3,-332.8 1651.2,-132.4 2790.3,525.3"
         style="fill:#878a8a;fill-opacity:1;fill-rule:nonzero;stroke:none"
         id="path6862" />
      <path
         d="m 10052.8,23951.7 c 287.2,-1057.5 -337.31,-2147.5 -1394.77,-2434.6 -1057.46,-287.1 -2147.44,337.3 -2434.58,1394.8 -287.11,1057.5 337.36,2147.5 1394.81,2434.6 1057.46,287.1 2147.46,-337.4 2434.54,-1394.8"
         style="fill:#f78d33;fill-opacity:1;fill-rule:nonzero;stroke:none"
         id="path6866" />
      <path
         d="m 8230.26,25414.1 c 352.73,-488.2 544.06,-1094.9 501.34,-1696.6 -62.18,-875.9 -616.91,-1692.5 -1388.67,-2103.3 400.17,-175.4 860.62,-220.5 1315.11,-97.1 1057.45,287.1 1681.96,1377.1 1394.76,2434.6 -231.47,852.6 -984.99,1423.6 -1822.54,1462.4"
         style="fill:#f68428;fill-opacity:1;fill-rule:nonzero;stroke:none"
         id="path6868" />
      <path
         d="m 4227.31,21569.7 c 14.56,29.4 22.74,62.5 22.74,97.5 0,121.5 -98.45,220 -219.92,220 -121.46,0 -219.91,-98.5 -219.91,-220 0,-33.8 7.61,-65.7 21.21,-94.3 -631.23,25.4 -1030.85,154.2 -1095.43,392.1 -140.89,518.9 1355.83,1396.1 3536.36,2141.7 -40.62,-111.8 -71.26,-227.5 -91.23,-345.8 -1383.65,-526 -2286.92,-1100 -2190.47,-1455.3 55.72,-205.2 435.99,-304.6 1028.78,-304.6 433.38,0 980.38,53.2 1596.86,157.1 77.11,-92 161.97,-176.3 253.48,-252.2 -1020.69,-207.8 -1934.5,-321.7 -2642.47,-336.2 M 10004,22756.9 c 40.6,111.8 71.2,227.5 91.2,345.8 1383.7,526 2286.9,1100 2190.4,1455.2 -55.7,205.2 -436,304.7 -1028.7,304.7 -433.4,0 -980.4,-53.2 -1596.89,-157.2 -77.07,92 -162.01,176.4 -253.47,252.2 1095.06,223 2066.96,337.8 2793.86,337.8 771.8,0 1267.3,-129.6 1339.9,-396.8 140.9,-518.9 -1355.8,-1396.2 -3536.3,-2141.7"
         style="fill:#b9ab2e;fill-opacity:1;fill-rule:nonzero;stroke:none"
         id="path6870" />
      <path
         d="m 4075.99,21568.2 c -84.94,0 -166.5,1.5 -244.56,4.7 -13.6,28.6 -21.21,60.5 -21.21,94.3 0,121.5 98.45,220 219.91,220 121.47,0 219.92,-98.5 219.92,-220 0,-35 -8.18,-68.1 -22.74,-97.5 -51.58,-1 -101.96,-1.5 -151.32,-1.5"
         style="fill:#c3b642;fill-opacity:1;fill-rule:nonzero;stroke:none"
         id="path6872" />
      <path
         d="m 6869.78,21905.9 c -91.51,75.9 -176.37,160.2 -253.48,252.2 530.05,89.4 1111.79,216.3 1716.84,379.1 -80.41,-126.2 -171.27,-245.9 -271.32,-357.2 -408.96,-104.5 -808.08,-195.9 -1192.04,-274.1 m -688.65,1855 c 19.97,118.3 50.61,234 91.12,345.7 0.11,0.1 0.11,0.1 0.11,0.1 -40.53,-111.8 -71.12,-227.5 -91.09,-345.8 -0.08,0 -0.06,0 -0.14,0 m 3478.83,944.5 c -77.1,92 -162.03,176.3 -253.52,252.2 -0.05,0 -0.05,0 -0.05,0 91.61,-75.8 176.55,-160.2 253.62,-252.2 -0.09,0 -0.08,0 -0.17,0"
         style="fill:#fbc923;fill-opacity:1;fill-rule:nonzero;stroke:none"
         id="path6874" />
      <path
         d="m 8061.82,22180 c 100.05,111.3 190.91,231 271.32,357.2 14.93,4 29.68,8 44.64,12.1 621.16,168.6 1202.54,357.7 1717.42,553.4 -20,-118.3 -50.6,-234 -91.2,-345.8 -487.3,-166.6 -1008.71,-326.6 -1553.74,-474.6 -130.38,-35.4 -259.85,-69.5 -388.44,-102.3 m 1598.02,2525.4 c -77.07,92 -161.98,176.3 -253.45,252.2 v 0 c 91.54,-75.9 176.47,-160.2 253.57,-252.2 -0.12,0 -0.12,0 -0.12,0"
         style="fill:#fbc71e;fill-opacity:1;fill-rule:nonzero;stroke:none"
         id="path6876" />
      <path
         d="m 11630.5,14926.8 -131.7,174.2 -2042.23,-2079.8 c -664.7628,-876.895 -954.8318,-692.412 -1397.9432,-1147.775 -768.2852,-417.107 395.8215,-1678.086 988.5827,-978.075 0,0 174.2035,264.313 1095.6955,704.694 l 2935.595,1410.656 -131.7,174.2 -1316.3,1741.9"
         style="fill:#d5fff6;fill-opacity:1;fill-rule:nonzero;stroke:none"
         id="path6878"
         sodipodi:nodetypes="ccccccccc" />
      <path
         d="m 12608,17130 c 112.4,394.1 189.3,798.2 229.5,1205.9 -1431.9,-386.6 -2681.6,-1357.1 -3342.66,-2684.9 309.57,-285.1 802.36,-464.3 1222.86,-446.2 942.4,40.4 1631.7,1018.1 1890.3,1925.2"
         style="fill:#bc3425;fill-opacity:1;fill-rule:nonzero;stroke:none"
         id="path6880" />
      <path
         d="m 15082.6,13679.8 c 409.7,4.5 819.8,-27.9 1223.7,-96.7 -750.6,-1279.2 -2016.3,-2228.7 -3471.5,-2516.1 -193.3,373.8 -236.2,896.4 -107.9,1297.2 287.6,898.4 1412.5,1305.4 2355.7,1315.6"
         style="fill:#bc3425;fill-opacity:1;fill-rule:nonzero;stroke:none"
         id="path6882" />
      <path
         d="m 8931.68,13012.9 c 1479.82,2438 3410.52,4635.1 5799.72,6192.4 2269.8,1479.4 4970.4,2356.4 7674.1,2270.5 243.3,-7.7 423,-228.6 383.8,-468.9 -161.6,-991.6 -749,-1855.6 -1407.1,-2649.2 -2849.7,-3436.5 -6761.5,-6033.4 -11105.4,-7063.2 -565.22,454.5 -954.41,1107.4 -1345.12,1718.4"
         style="fill:#a5a7a6;fill-opacity:1;fill-rule:nonzero;stroke:none"
         id="path6884" />
      <path
         d="m 17609.6,20659 c -981.3,-364.4 -1923.8,-839.6 -2803,-1405.1 -239.1,-404.6 -461.1,-819.5 -666.3,-1241.6 -809.6,-1665.6 -1365.4,-3445.2 -1784.9,-5249 -3.4,-14.7 28.4,-45.1 28.4,-60.2 1276.7,2905.4 3067.7,5611.1 5225.8,7955.9"
         style="fill:#afb1af;fill-opacity:1;fill-rule:nonzero;stroke:none"
         id="path6886" />
      <path
         d="m 18091.6,20827.9 c -1538.3,-1969.3 -2872.6,-4035.9 -4046.1,-6287 1403.2,2503.8 3283,4768.5 5455.8,6669 -475.8,-101.1 -946.5,-229.1 -1409.7,-382"
         style="fill:#afb1af;fill-opacity:1;fill-rule:nonzero;stroke:none"
         id="path6888" />
      <path
         d="m 8030.25,14482.8 c 1024.67,363.8 2102.15,578.6 3187.95,635.5 -447.9,-921.8 -1085.7,-1826.3 -1855.78,-2502.7 -678.28,247.1 -1409.45,355.1 -2126.25,440.7 101.63,551.9 265.2,1238.7 794.08,1426.5"
         style="fill:#8c8f8f;fill-opacity:1;fill-rule:nonzero;stroke:none"
         id="path6890" />
      <path
         d="m 10642.7,14108.1 c -291.9,-208.6 -605.7,-380.4 -949.63,-479.7 -637.59,-184.1 -1401.92,-65.6 -1829.4,442 -122.08,-6.1 -244.61,-42.6 -360.7,-101.5 -138.88,-277 -211.9,-614.5 -266.8,-912.6 716.8,-85.6 1447.97,-193.6 2126.25,-440.7 483.74,424.9 915.28,939.8 1280.28,1492.5"
         style="fill:#7d8081;fill-opacity:1;fill-rule:nonzero;stroke:none"
         id="path6892" />
      <path
         d="m 10276.8,11294.5 c 4343.9,1029.8 8255.7,3626.7 11105.4,7063.2 658.1,793.6 1245.5,1657.6 1407.1,2649.2 10.5,64.3 5.2,127.2 -12.7,185 -4261.1,-3251 -8736.5,-6221.1 -13387.47,-8884.7 256.63,-375.5 538.55,-731.9 887.67,-1012.7"
         style="fill:#999b9b;fill-opacity:1;fill-rule:nonzero;stroke:none"
         id="path6894" />
      <path
         d="m 6250.07,12410 c -318.74,89.2 -585.31,285.3 -716.63,589.2 172.37,796.8 641.21,1526 1294.69,2013.5 653.49,487.6 1486,729.3 2298.96,667.5 C 9018.54,14920.8 8757.54,14141 8236.67,13577.8 7715.8,13014.6 6988.8,12203.2 6250.07,12410"
         style="fill:#bc3425;fill-opacity:1;fill-rule:nonzero;stroke:none"
         id="path6896" />
      <path
         d="m 14179.7,17563.6 c 582.4,127.9 1199.2,340.4 1814.4,638.3 870.2,421.3 1608.5,951.1 2153,1507.8 -637.9,866.3 -1821.7,1182.9 -2825,697.2 -1066.5,-516.4 -1548.2,-1755 -1142.4,-2843.3"
         style="fill:#7ad3d8;fill-opacity:1;fill-rule:nonzero;stroke:none"
         id="path6898" />
      <path
         d="m 9389.12,12307.2 c 256.64,-375.5 538.56,-731.9 887.68,-1012.7 2105.2,499.1 4109,1366.3 5939.5,2518.7 -535.5,-72.7 -1077.9,-94.3 -1617.3,-62.6 -314.1,18.4 -632.1,43.9 -797.6,311.5 3067.9,1961.7 5931.7,4242.2 8530.8,6792.6 -4127.6,-3119.5 -8453.5,-5976.3 -12943.08,-8547.5"
         style="fill:#878a8a;fill-opacity:1;fill-rule:nonzero;stroke:none"
         id="path6900" />
      <path
         d="M 12772.8,12840.6 C 12329,11836.7 11828.5,10857.8 11274.6,9910 c -545.4,-146.5 -1069.8,-326 -1615.28,-472.5 33.81,877.9 194.65,1740.1 407.08,2592.5 840.4,412.5 1770.2,813 2706.4,810.6"
         style="fill:#8c8f8f;fill-opacity:1;fill-rule:nonzero;stroke:none"
         id="path6902" />
      <path
         d="m 11865.8,12728.9 c -623.5,-147.3 -1231.8,-420.3 -1799.4,-698.9 -212.42,-852.4 -373.27,-1714.6 -407.08,-2592.5 384.78,103.4 759.18,223.1 1137.78,336.2 -94.2,623.3 -7.2,1274 252.2,1848.9 189.9,421 471.4,799.5 816.5,1106.3"
         style="fill:#777b7d;fill-opacity:1;fill-rule:nonzero;stroke:none"
         id="path6904" />
      <path
         d="m 8670.03,8676 c 532.56,653.3 1182,1233.9 1962.57,1551.9 780.5,318.1 1705.4,346.3 2445.9,-56.3 -323.4,-725.1 -904.8,-1306.2 -1573.1,-1734.7 -668.4,-428.5 -1463.3,-656.7 -2257.2,-648 -332.68,202.6 -552.81,498.4 -578.17,887.1"
         style="fill:#bc3425;fill-opacity:1;fill-rule:nonzero;stroke:none"
         id="path6906" />
      <path
         d="m 8920.42,15689.2 c -104.23,-570.4 -300.69,-1128.8 -642.39,-1595.5 -377.77,-515.8 -948.27,-909.9 -1583.27,-984.7 -367.47,-43.3 -752.26,33.8 -1073.92,213.2 -34.44,-106.1 -63.8,-213.9 -87.4,-323 131.32,-303.9 397.89,-500 716.62,-589.2 738.75,-206.8 1465.74,604.6 1986.61,1167.8 520.87,563.2 781.87,1343 890.42,2102.4 -68.79,5.2 -137.71,8.1 -206.67,9"
         style="fill:#a52b21;fill-opacity:1;fill-rule:nonzero;stroke:none"
         id="path6908" />
      <path
         d="m 13015.8,10204.3 c -467.9,-423.1 -1065.4,-703.3 -1691.5,-783.9 -560.5,-72.1 -1139.3,16.4 -1655.98,244.5 -370.44,-285.6 -702.44,-626 -998.29,-988.9 25.36,-388.7 245.49,-684.5 578.17,-887.1 793.9,-8.7 1588.8,219.5 2257.2,648 668.3,428.5 1249.7,1009.6 1573.1,1734.7 -20.8,11.2 -41.7,22.1 -62.7,32.7"
         style="fill:#9f2920;fill-opacity:1;fill-rule:nonzero;stroke:none"
         id="path6910" />
      <path
         d="m 15726.3,20557.5 c -136.8,-36.7 -272.1,-86.7 -404.2,-150.6 -1066.5,-516.4 -1548.2,-1755 -1142.4,-2843.3 401.4,88.2 819.1,216.6 1241.5,385.3 -172,505.2 -210.8,1055.8 -106.8,1579.4 72.5,364.5 213.9,714.7 411.9,1029.2"
         style="fill:#6fcfce;fill-opacity:1;fill-rule:nonzero;stroke:none"
         id="path6912" />
      <path
         d="m 16670.2,20202.1 c 0,-100.5 -81.4,-181.9 -181.9,-181.9 -100.5,0 -182,81.4 -182,181.9 0,100.5 81.5,182 182,182 100.5,0 181.9,-81.5 181.9,-182"
         style="fill:#fffad6;fill-opacity:1;fill-rule:nonzero;stroke:none"
         id="path6914" />
      <path
         d="m 17509.5,19887.1 c 0,-173.9 -141,-315 -315,-315 -173.9,0 -315,141.1 -315,315 0,174 141.1,315 315,315 174,0 315,-141 315,-315"
         style="fill:#fffad6;fill-opacity:1;fill-rule:nonzero;stroke:none"
         id="path6916" />
    </g>
  </g>
</svg>
